<?xml version="1.0" standalone="no"?>
<!DOCTYPE svg PUBLIC "-//W3C//DTD SVG 20010904//EN"
 "http://www.w3.org/TR/2001/REC-SVG-20010904/DTD/svg10.dtd">
<svg version="1.0" xmlns="http://www.w3.org/2000/svg"
 width="1916.000000pt" height="1916.000000pt" viewBox="0 0 1916.000000 1916.000000"
 preserveAspectRatio="xMidYMid meet">
<metadata>
Created by potrace 1.14, written by Peter Selinger 2001-2017
</metadata>
<g transform="translate(0.000000,1916.000000) scale(0.100000,-0.100000)"
fill="#000000" stroke="none">
<path d="M780 14827 c0 -7 -9 -23 -20 -35 -12 -12 -18 -22 -15 -22 3 0 -5 -19
-17 -41 -13 -23 -29 -53 -37 -68 -8 -14 -17 -28 -21 -31 -3 -3 -24 -36 -45
-75 -21 -38 -53 -93 -71 -121 -18 -29 -30 -54 -27 -58 4 -3 1 -6 -5 -6 -7 0
-18 -15 -27 -32 -8 -18 -33 -62 -54 -98 -22 -36 -45 -74 -51 -85 -5 -11 -21
-38 -35 -60 -14 -22 -31 -52 -37 -67 -7 -16 -16 -28 -20 -28 -4 0 -8 -5 -8
-10 0 -6 -12 -29 -27 -53 -15 -23 -33 -51 -39 -62 -6 -11 -21 -38 -34 -60 -13
-22 -35 -60 -49 -85 -13 -25 -27 -47 -31 -50 -3 -3 -14 -23 -25 -45 -11 -22
-22 -42 -25 -45 -11 -9 -50 -81 -50 -91 0 -5 2409 -8 6442 -7 l6442 3 29 50
c17 28 43 75 60 105 17 30 33 57 37 60 3 3 14 21 24 40 9 19 23 44 29 55 12
19 89 152 113 197 7 11 17 25 23 31 6 6 11 19 11 28 0 10 4 19 8 21 8 3 112
179 146 246 10 20 21 39 25 42 3 3 11 14 17 25 6 11 23 41 37 68 15 26 39 68
53 95 15 26 30 52 34 57 10 12 48 80 69 120 8 17 21 36 28 43 7 7 13 20 13 28
0 8 5 14 10 14 6 0 10 5 10 10 0 7 -2155 10 -6445 10 -5310 0 -6445 -2 -6445
-13z"/>
<path d="M14406 14823 c-3 -10 -11 -27 -18 -38 -31 -47 -78 -126 -78 -129 0
-6 -73 -129 -80 -136 -3 -3 -6 -12 -8 -20 -2 -8 -9 -22 -16 -30 -7 -8 -24 -35
-38 -60 -66 -119 -232 -406 -237 -410 -3 -3 -7 -12 -9 -20 -2 -8 -8 -16 -13
-18 -5 -2 -9 -7 -9 -12 0 -12 -83 -154 -92 -158 -4 -2 -8 -8 -8 -14 0 -5 -16
-37 -36 -71 -20 -34 -50 -87 -67 -117 -17 -30 -34 -56 -39 -58 -4 -2 -8 -8 -8
-13 0 -4 -24 -49 -52 -99 -29 -50 -57 -98 -63 -108 -5 -9 -31 -53 -56 -97 -26
-44 -57 -98 -69 -120 -13 -22 -31 -53 -42 -70 -10 -16 -21 -38 -24 -47 -4 -10
-10 -18 -15 -18 -5 0 -8 -3 -7 -7 1 -5 -11 -30 -27 -58 -78 -135 -117 -201
-125 -215 -6 -8 -13 -22 -17 -30 -6 -13 -152 -267 -173 -300 -5 -8 -21 -37
-36 -65 -15 -27 -35 -61 -45 -74 -11 -13 -19 -30 -19 -37 0 -8 -4 -14 -10 -14
-5 0 -10 -5 -10 -11 0 -6 -9 -24 -21 -40 -11 -16 -17 -29 -12 -29 4 0 3 -4 -3
-8 -6 -4 -23 -29 -38 -57 -15 -27 -35 -63 -45 -80 -42 -70 -165 -282 -179
-310 -9 -16 -18 -32 -21 -35 -3 -3 -15 -23 -27 -45 -19 -36 -145 -255 -244
-425 -50 -85 -362 -625 -387 -670 -113 -199 -188 -326 -197 -332 -6 -4 -7 -8
-2 -8 5 0 4 -6 -2 -12 -5 -7 -51 -85 -102 -173 -51 -88 -101 -175 -111 -192
-11 -18 -27 -48 -38 -65 -10 -18 -75 -131 -145 -252 -69 -120 -126 -222 -126
-227 0 -5 -5 -9 -11 -9 -5 0 -7 -4 -4 -10 3 -5 2 -10 -2 -10 -5 0 -17 -17 -28
-37 -31 -58 -109 -193 -138 -240 -15 -24 -27 -47 -27 -53 0 -5 -5 -10 -11 -10
-5 0 -8 -4 -4 -9 3 -5 0 -13 -5 -16 -6 -4 -16 -17 -21 -28 -5 -12 -18 -37 -29
-55 -11 -18 -72 -124 -136 -235 -64 -111 -124 -214 -135 -229 -10 -15 -19 -34
-19 -43 0 -8 -4 -15 -8 -15 -4 0 -18 -19 -30 -42 -12 -24 -26 -50 -32 -58 -19
-30 -130 -222 -130 -226 0 -3 -29 -54 -75 -129 -7 -11 -12 -24 -13 -29 0 -5
-4 -12 -9 -15 -5 -3 -16 -19 -25 -36 -8 -16 -39 -70 -68 -120 -103 -177 -111
-190 -117 -207 -3 -10 -9 -18 -13 -18 -5 0 -13 -12 -19 -27 -6 -16 -22 -46
-36 -68 -14 -22 -33 -56 -43 -75 -9 -19 -23 -41 -29 -48 -10 -11 -13 -297 -13
-1364 0 -743 2 -1349 4 -1347 4 4 114 193 169 289 11 19 58 100 105 180 47 80
90 155 96 167 6 13 15 23 19 23 5 0 5 4 2 10 -3 5 -2 10 4 10 5 0 13 10 16 21
4 12 43 83 86 157 44 74 79 136 79 139 0 3 8 17 19 31 10 15 35 59 56 97 21
39 43 73 49 77 6 4 7 8 3 8 -4 0 6 20 23 45 17 25 28 45 25 45 -3 0 3 10 15
22 11 12 20 26 20 30 0 12 93 172 102 176 5 2 8 7 8 12 0 8 91 172 100 180 3
3 17 26 30 52 14 26 49 89 79 140 30 51 62 107 72 125 10 17 29 50 43 72 15
22 26 45 26 50 0 5 7 14 15 21 8 7 12 16 9 21 -3 5 0 9 5 9 6 0 11 7 11 15 0
8 3 15 8 15 4 0 12 10 18 23 26 55 88 162 96 165 4 2 8 8 8 13 0 12 91 168
102 175 4 3 8 12 8 20 0 8 5 20 10 27 12 13 146 243 188 322 15 28 30 52 35
53 4 2 7 8 7 13 0 6 16 35 35 65 19 30 35 56 35 58 0 4 124 222 140 246 6 8
18 31 28 50 9 19 20 37 23 40 4 3 17 24 30 48 13 24 29 51 34 60 6 10 48 84
95 165 47 81 92 160 101 175 16 26 73 126 120 209 12 21 30 52 40 68 11 17 22
37 26 45 3 8 9 17 12 20 6 5 33 53 70 125 9 17 19 32 24 33 4 2 7 10 7 18 0 8
5 14 11 14 5 0 8 4 4 9 -3 5 -1 12 5 16 5 3 31 44 57 92 26 47 60 106 75 132
16 25 31 53 35 61 23 46 78 136 87 142 6 4 7 8 2 8 -5 0 -2 8 6 18 8 9 18 24
22 32 3 8 16 32 29 52 12 21 35 61 51 90 16 29 46 81 67 116 22 35 39 68 39
73 0 5 4 9 8 9 4 0 13 12 19 28 7 15 17 34 22 42 17 24 211 362 211 367 0 2
16 29 35 59 19 30 35 57 35 59 0 3 12 24 27 48 15 23 28 48 29 56 2 8 7 17 11
20 12 8 253 428 253 440 0 5 4 11 8 13 5 2 22 28 39 58 17 30 52 93 79 140 27
47 55 97 63 113 8 15 18 27 23 27 4 0 8 9 8 20 0 11 4 20 9 20 5 0 11 8 15 18
3 9 20 40 36 67 17 28 34 58 37 68 3 9 9 17 14 17 5 0 9 5 9 11 0 6 32 64 70
130 39 66 70 124 70 129 0 4 4 10 8 12 5 2 15 15 23 30 8 16 64 115 125 220
61 106 120 209 130 228 11 19 22 37 27 38 4 2 7 9 7 17 0 7 7 18 15 25 8 7 12
16 9 21 -3 5 0 9 5 9 6 0 11 7 11 15 0 8 4 15 9 15 5 0 11 8 14 18 3 9 22 44
41 77 19 33 41 71 48 85 8 14 40 68 71 122 31 53 57 99 57 102 0 4 5 12 10 19
6 7 78 129 161 272 83 143 154 267 159 275 66 113 110 192 110 200 0 6 4 10 9
10 5 0 12 9 16 20 3 10 25 51 48 90 50 84 58 98 150 260 40 69 75 127 79 128
5 2 8 8 8 12 0 5 23 48 50 96 28 48 50 91 50 95 0 5 4 9 9 9 5 0 13 10 17 23
3 12 14 33 24 47 10 14 34 57 55 95 21 39 41 72 44 75 4 3 12 16 18 30 7 14
26 48 43 75 16 28 33 57 37 65 25 48 88 157 99 170 7 8 17 27 23 43 l11 27
-779 0 c-733 0 -779 -1 -785 -17z"/>
<path d="M4362 12806 c2 -9 214 -381 248 -436 23 -36 145 -250 172 -300 17
-30 34 -59 38 -65 4 -5 18 -28 31 -50 12 -22 32 -56 43 -77 101 -178 141 -243
148 -246 4 -2 6 -8 2 -13 -3 -5 0 -9 6 -9 6 0 8 -4 5 -10 -3 -5 -2 -10 3 -10
4 0 14 -16 22 -35 8 -19 17 -35 22 -35 4 0 8 -6 8 -13 0 -7 6 -19 13 -25 6 -7
12 -16 12 -20 1 -4 12 -25 26 -47 14 -22 39 -65 56 -95 17 -30 54 -95 83 -145
29 -49 123 -211 208 -360 85 -148 166 -287 179 -308 13 -21 28 -48 33 -60 6
-12 28 -51 50 -86 22 -34 40 -66 40 -70 0 -3 11 -22 23 -41 13 -19 35 -55 49
-80 14 -25 69 -121 123 -215 54 -93 106 -183 114 -200 9 -16 18 -32 21 -35 10
-10 41 -65 47 -82 3 -10 9 -18 14 -18 5 0 9 -4 9 -9 0 -5 50 -96 111 -202 104
-180 124 -216 161 -280 7 -13 15 -26 18 -29 3 -3 14 -23 25 -45 11 -22 23 -42
26 -45 3 -3 21 -32 39 -65 18 -33 52 -93 76 -132 24 -40 44 -75 44 -78 0 -3
17 -34 39 -68 21 -34 51 -85 67 -114 16 -28 56 -98 89 -155 33 -56 62 -107 64
-113 2 -5 10 -18 19 -27 8 -10 11 -18 6 -18 -5 0 -4 -4 1 -8 9 -6 86 -136 233
-393 123 -214 263 -456 269 -465 4 -5 15 -23 24 -40 9 -16 74 -129 145 -252
71 -122 141 -244 155 -270 15 -26 66 -114 114 -197 48 -82 101 -175 118 -205
17 -30 34 -56 39 -58 4 -2 8 -8 8 -13 0 -9 29 -60 130 -234 55 -93 89 -154
106 -185 10 -19 22 -36 27 -38 4 -2 7 -7 7 -12 0 -5 23 -48 51 -97 29 -48 63
-108 77 -133 14 -25 36 -62 49 -82 12 -21 23 -42 23 -48 0 -5 5 -10 10 -10 6
0 10 -4 10 -10 0 -8 62 -120 100 -180 5 -8 21 -37 36 -65 14 -27 32 -57 38
-65 7 -8 25 -40 40 -70 16 -30 44 -80 62 -110 18 -31 38 -68 43 -83 6 -15 15
-27 21 -27 6 0 8 -4 5 -10 -3 -5 -1 -10 4 -10 6 0 11 -7 11 -15 0 -8 5 -15 11
-15 5 0 8 -4 4 -9 -3 -5 -1 -12 5 -16 6 -4 8 -10 5 -15 -3 -4 2 -10 10 -14 8
-3 15 -12 15 -19 0 -8 9 -24 20 -37 11 -12 17 -27 14 -31 -3 -5 -1 -9 5 -9 5
0 17 -18 27 -40 10 -22 22 -40 27 -40 4 0 6 -4 3 -9 -3 -5 1 -14 9 -21 8 -7
12 -16 9 -21 -3 -5 -1 -9 4 -9 8 0 28 -32 78 -128 12 -23 24 -39 27 -35 2 5 3
613 3 1353 l-1 1345 -39 65 c-21 36 -52 90 -69 120 -16 30 -36 62 -43 71 -8 8
-14 18 -14 22 0 6 -78 143 -100 177 -6 8 -13 22 -17 30 -4 8 -9 17 -12 20 -4
3 -15 23 -26 45 -11 22 -22 42 -25 45 -3 3 -11 16 -19 30 -8 14 -55 95 -104
180 -49 85 -99 173 -112 195 -13 22 -68 118 -124 214 -56 95 -101 175 -101
177 0 3 -12 23 -27 47 -48 75 -203 349 -203 358 0 5 -4 9 -8 9 -5 0 -14 16
-22 35 -8 19 -17 35 -22 35 -4 0 -8 7 -8 15 0 8 -5 15 -11 15 -5 0 -7 5 -4 10
3 6 1 10 -5 10 -6 0 -8 5 -5 10 3 6 1 10 -4 10 -6 0 -11 5 -11 11 0 6 -8 23
-18 37 -11 15 -33 52 -49 82 -17 30 -53 95 -82 143 -28 49 -51 92 -51 97 0 5
-3 10 -7 12 -10 4 -42 57 -50 81 -3 9 -10 17 -15 17 -5 0 -7 4 -4 9 3 5 -1 14
-9 21 -8 7 -15 19 -15 26 0 8 -3 14 -8 14 -4 0 -15 17 -25 38 -26 54 -51 97
-59 100 -5 2 -8 8 -8 12 0 8 -219 393 -250 440 -5 8 -21 35 -35 60 -14 25 -38
68 -55 95 -17 28 -35 59 -40 70 -6 11 -14 27 -20 35 -9 14 -128 220 -239 413
-10 17 -32 55 -49 84 -17 28 -28 54 -25 57 4 3 1 6 -6 6 -6 0 -15 10 -20 23
-11 27 -156 277 -171 295 -6 6 -8 12 -4 12 4 0 0 8 -8 18 -8 9 -28 42 -44 72
-16 30 -32 57 -35 60 -9 8 -99 171 -99 180 0 5 -3 10 -8 12 -4 2 -32 46 -61
98 -75 133 -83 145 -135 233 -25 43 -46 80 -46 83 0 3 -15 28 -33 57 -18 29
-36 59 -40 67 -4 8 -21 38 -37 65 -17 28 -36 61 -43 75 -6 14 -14 27 -17 30
-3 3 -33 52 -65 109 -33 57 -67 116 -75 130 -29 50 -95 166 -105 186 -10 20
-21 20 -788 21 -550 0 -777 -3 -775 -10z"/>
</g>
</svg>
