<svg xmlns="http://www.w3.org/2000/svg" viewBox="0 0 14 14" height="600" width="600"><g><line x1="7" y1="0.5" x2="7" y2="4.5" fill="none" stroke="#ffffff" stroke-linecap="round" stroke-linejoin="round"></line><line x1="8.5" y1="11" x2="11" y2="11" fill="none" stroke="#ffffff" stroke-linecap="round" stroke-linejoin="round"></line><path d="M.5,4.5h13a0,0,0,0,1,0,0v8a1,1,0,0,1-1,1H1.5a1,1,0,0,1-1-1v-8A0,0,0,0,1,.5,4.5Z" fill="none" stroke="#ffffff" stroke-linecap="round" stroke-linejoin="round"></path><path d="M.5,4.5,2,1.61A2,2,0,0,1,3.74.5h6.52a2,2,0,0,1,1.79,1.11L13.5,4.5" fill="none" stroke="#ffffff" stroke-linecap="round" stroke-linejoin="round"></path></g></svg>